<svg viewBox="0 0 2 2">
    <g class="bottle-cap">
    <circle class="rim" cx="1" cy="1" r="1" mask="url(#bottle-cap-shape-0)"  fill="var(--iconColor)"/>
    <mask id="bottle-cap-shape-0">
      <rect width="2" height="2" x="0" y="0" fill="white"/>
      <circle cx="1" cy="1" r="0.7" fill="black"/>
      <circle cx="1" cy="2" r="0.16" fill="black"/>
      <circle cx="1.2947551744109043" cy="1.9555728057861408" r="0.16" fill="black"/>
      <circle cx="1.563320058063622" cy="1.826238774315995" r="0.16" fill="black"/>
      <circle cx="1.78183148246803" cy="1.6234898018587336" r="0.16" fill="black"/>
      <circle cx="1.930873748644204" cy="1.3653410243663953" r="0.16" fill="black"/>
      <circle cx="1.99720379718118" cy="1.0747300935864244" r="0.16" fill="black"/>
      <circle cx="1.9749279121818235" cy="0.7774790660436857" r="0.16" fill="black"/>
      <circle cx="1.8660254037844388" cy="0.5000000000000002" r="0.16" fill="black"/>
      <circle cx="1.6801727377709197" cy="0.266948128170174" r="0.16" fill="black"/>
      <circle cx="1.4338837391175583" cy="0.09903113209758097" r="0.16" fill="black"/>
      <circle cx="1.1490422661761748" cy="0.011169173774871477" r="0.16" fill="black"/>
      <circle cx="0.8509577338238256" cy="0.011169173774871477" r="0.16" fill="black"/>
      <circle cx="0.5661162608824419" cy="0.09903113209758085" r="0.16" fill="black"/>
      <circle cx="0.31982726222908053" cy="0.26694812817017377" r="0.16" fill="black"/>
      <circle cx="0.13397459621556151" cy="0.49999999999999956" r="0.16" fill="black"/>
      <circle cx="0.02507208781817638" cy="0.7774790660436854" r="0.16" fill="black"/>
      <circle cx="0.0027962028188197596" cy="1.0747300935864235" r="0.16" fill="black"/>
      <circle cx="0.06912625135579553" cy="1.3653410243663946" r="0.16" fill="black"/>
      <circle cx="0.21816851753197009" cy="1.6234898018587334" r="0.16" fill="black"/>
      <circle cx="0.43667994193637805" cy="1.826238774315995" r="0.16" fill="black"/>
      <circle cx="0.7052448255890953" cy="1.9555728057861406" r="0.16" fill="black"/>
    </mask>
  </g>
</svg>
