<svg viewBox="0 0 6 6">
  <style>
    @import url(../styles/logo_small.css);
  </style>
  <g class="bottle-cap-blue">
    <circle class="rim" cx="1.0908116907963217" cy="2.5227029226990805" r="1" mask="url(#bottle-cap-shape-1)"  fill="var(--mainColor)"/>
    <mask id="bottle-cap-shape-1">
      <rect width="2" height="2" x="0.09081169079632168" y="1.5227029226990805" fill="white"/>
      <circle cx="1.0908116907963217" cy="2.5227029226990805" r="0.7" fill="black"/>
      <circle cx="1.0908116907963217" cy="3.5227029226990805" r="0.16" fill="black"/>
      <circle cx="1.3855668652072257" cy="3.4782757284852215" r="0.16" fill="black"/>
      <circle cx="1.6541317488599436" cy="3.3489416970150754" r="0.16" fill="black"/>
      <circle cx="1.8726431732643514" cy="3.146192724557814" r="0.16" fill="black"/>
      <circle cx="2.021685439440526" cy="2.8880439470654755" r="0.16" fill="black"/>
      <circle cx="2.088015487977502" cy="2.597433016285505" r="0.16" fill="black"/>
      <circle cx="2.0657396029781454" cy="2.300181988742766" r="0.16" fill="black"/>
      <circle cx="1.9568370945807603" cy="2.0227029226990805" r="0.16" fill="black"/>
      <circle cx="1.7709844285672414" cy="1.7896510508692545" r="0.16" fill="black"/>
      <circle cx="1.52469542991388" cy="1.6217340547966614" r="0.16" fill="black"/>
      <circle cx="1.2398539569724965" cy="1.533872096473952" r="0.16" fill="black"/>
      <circle cx="0.9417694246201472" cy="1.533872096473952" r="0.16" fill="black"/>
      <circle cx="0.6569279516787636" cy="1.6217340547966614" r="0.16" fill="black"/>
      <circle cx="0.4106389530254022" cy="1.7896510508692542" r="0.16" fill="black"/>
      <circle cx="0.2247862870118832" cy="2.02270292269908" r="0.16" fill="black"/>
      <circle cx="0.11588377861449806" cy="2.3001819887427657" r="0.16" fill="black"/>
      <circle cx="0.09360789361514144" cy="2.597433016285504" r="0.16" fill="black"/>
      <circle cx="0.1599379421521172" cy="2.888043947065475" r="0.16" fill="black"/>
      <circle cx="0.30898020832829176" cy="3.146192724557814" r="0.16" fill="black"/>
      <circle cx="0.5274916327326997" cy="3.3489416970150754" r="0.16" fill="black"/>
      <circle cx="0.796056516385417" cy="3.478275728485221" r="0.16" fill="black"/>
    </mask>
  </g>
  <g class="bottle-cap-black">
    <circle class="rim" cx="3" cy="2.5227029226990805" r="1" mask="url(#bottle-cap-shape-2)"  fill="var(--mainColor)"/>
    <mask id="bottle-cap-shape-2">
      <rect width="2" height="2" x="2" y="1.5227029226990805" fill="white"/>
      <circle cx="3" cy="2.5227029226990805" r="0.7" fill="black"/>
      <circle cx="3" cy="3.5227029226990805" r="0.16" fill="black"/>
      <circle cx="3.2947551744109043" cy="3.4782757284852215" r="0.16" fill="black"/>
      <circle cx="3.563320058063622" cy="3.3489416970150754" r="0.16" fill="black"/>
      <circle cx="3.78183148246803" cy="3.146192724557814" r="0.16" fill="black"/>
      <circle cx="3.930873748644204" cy="2.8880439470654755" r="0.16" fill="black"/>
      <circle cx="3.99720379718118" cy="2.597433016285505" r="0.16" fill="black"/>
      <circle cx="3.9749279121818235" cy="2.300181988742766" r="0.16" fill="black"/>
      <circle cx="3.866025403784439" cy="2.0227029226990805" r="0.16" fill="black"/>
      <circle cx="3.6801727377709197" cy="1.7896510508692545" r="0.16" fill="black"/>
      <circle cx="3.433883739117558" cy="1.6217340547966614" r="0.16" fill="black"/>
      <circle cx="3.1490422661761746" cy="1.533872096473952" r="0.16" fill="black"/>
      <circle cx="2.8509577338238254" cy="1.533872096473952" r="0.16" fill="black"/>
      <circle cx="2.566116260882442" cy="1.6217340547966614" r="0.16" fill="black"/>
      <circle cx="2.3198272622290803" cy="1.7896510508692542" r="0.16" fill="black"/>
      <circle cx="2.1339745962155616" cy="2.02270292269908" r="0.16" fill="black"/>
      <circle cx="2.0250720878181765" cy="2.3001819887427657" r="0.16" fill="black"/>
      <circle cx="2.0027962028188195" cy="2.597433016285504" r="0.16" fill="black"/>
      <circle cx="2.0691262513557955" cy="2.888043947065475" r="0.16" fill="black"/>
      <circle cx="2.21816851753197" cy="3.146192724557814" r="0.16" fill="black"/>
      <circle cx="2.436679941936378" cy="3.3489416970150754" r="0.16" fill="black"/>
      <circle cx="2.7052448255890953" cy="3.478275728485221" r="0.16" fill="black"/>
    </mask>
  </g>
  <g class="bottle-cap-red">
    <circle class="rim" cx="4.909188309203678" cy="2.5227029226990805" r="1" mask="url(#bottle-cap-shape-3)"  fill="var(--mainColor)"/>
    <mask id="bottle-cap-shape-3">
      <rect width="2" height="2" x="3.909188309203678" y="1.5227029226990805" fill="white"/>
      <circle cx="4.909188309203678" cy="2.5227029226990805" r="0.7" fill="black"/>
      <circle cx="4.909188309203678" cy="3.5227029226990805" r="0.16" fill="black"/>
      <circle cx="5.203943483614582" cy="3.4782757284852215" r="0.16" fill="black"/>
      <circle cx="5.4725083672673005" cy="3.3489416970150754" r="0.16" fill="black"/>
      <circle cx="5.691019791671708" cy="3.146192724557814" r="0.16" fill="black"/>
      <circle cx="5.840062057847883" cy="2.8880439470654755" r="0.16" fill="black"/>
      <circle cx="5.906392106384859" cy="2.597433016285505" r="0.16" fill="black"/>
      <circle cx="5.884116221385502" cy="2.300181988742766" r="0.16" fill="black"/>
      <circle cx="5.7752137129881165" cy="2.0227029226990805" r="0.16" fill="black"/>
      <circle cx="5.589361046974598" cy="1.7896510508692545" r="0.16" fill="black"/>
      <circle cx="5.343072048321236" cy="1.6217340547966614" r="0.16" fill="black"/>
      <circle cx="5.058230575379853" cy="1.533872096473952" r="0.16" fill="black"/>
      <circle cx="4.760146043027504" cy="1.533872096473952" r="0.16" fill="black"/>
      <circle cx="4.47530457008612" cy="1.6217340547966614" r="0.16" fill="black"/>
      <circle cx="4.229015571432758" cy="1.7896510508692542" r="0.16" fill="black"/>
      <circle cx="4.04316290541924" cy="2.02270292269908" r="0.16" fill="black"/>
      <circle cx="3.9342603970218546" cy="2.3001819887427657" r="0.16" fill="black"/>
      <circle cx="3.9119845120224976" cy="2.597433016285504" r="0.16" fill="black"/>
      <circle cx="3.9783145605594736" cy="2.888043947065475" r="0.16" fill="black"/>
      <circle cx="4.127356826735648" cy="3.146192724557814" r="0.16" fill="black"/>
      <circle cx="4.345868251140056" cy="3.3489416970150754" r="0.16" fill="black"/>
      <circle cx="4.614433134792773" cy="3.478275728485221" r="0.16" fill="black"/>
    </mask>
  </g>
  <g class="bottle-cap-yellow">
    <circle class="rim" cx="2.045405845398161" cy="3.4772970773009195" r="1" mask="url(#bottle-cap-shape-4)"  fill="var(--mainColor)"/>
    <mask id="bottle-cap-shape-4">
      <rect width="2" height="2" x="1.045405845398161" y="2.4772970773009195" fill="white"/>
      <circle cx="2.045405845398161" cy="3.4772970773009195" r="0.7" fill="black"/>
      <circle cx="2.045405845398161" cy="4.4772970773009195" r="0.16" fill="black"/>
      <circle cx="2.340161019809065" cy="4.4328698830870605" r="0.16" fill="black"/>
      <circle cx="2.608725903461783" cy="4.303535851616914" r="0.16" fill="black"/>
      <circle cx="2.827237327866191" cy="4.100786879159653" r="0.16" fill="black"/>
      <circle cx="2.976279594042365" cy="3.8426381016673146" r="0.16" fill="black"/>
      <circle cx="3.042609642579341" cy="3.552027170887344" r="0.16" fill="black"/>
      <circle cx="3.0203337575799845" cy="3.254776143344605" r="0.16" fill="black"/>
      <circle cx="2.9114312491825998" cy="2.9772970773009195" r="0.16" fill="black"/>
      <circle cx="2.7255785831690806" cy="2.7442452054710937" r="0.16" fill="black"/>
      <circle cx="2.479289584515719" cy="2.5763282093985005" r="0.16" fill="black"/>
      <circle cx="2.1944481115743355" cy="2.488466251075791" r="0.16" fill="black"/>
      <circle cx="1.8963635792219864" cy="2.488466251075791" r="0.16" fill="black"/>
      <circle cx="1.6115221062806029" cy="2.5763282093985005" r="0.16" fill="black"/>
      <circle cx="1.3652331076272415" cy="2.7442452054710933" r="0.16" fill="black"/>
      <circle cx="1.1793804416137226" cy="2.977297077300919" r="0.16" fill="black"/>
      <circle cx="1.0704779332163374" cy="3.2547761433446047" r="0.16" fill="black"/>
      <circle cx="1.0482020482169807" cy="3.552027170887343" r="0.16" fill="black"/>
      <circle cx="1.1145320967539565" cy="3.842638101667314" r="0.16" fill="black"/>
      <circle cx="1.263574362930131" cy="4.100786879159653" r="0.16" fill="black"/>
      <circle cx="1.482085787334539" cy="4.303535851616914" r="0.16" fill="black"/>
      <circle cx="1.7506506709872562" cy="4.43286988308706" r="0.16" fill="black"/>
    </mask>
  </g>
  <g class="bottle-cap-green">
    <circle class="rim" cx="3.954594154601839" cy="3.4772970773009195" r="1" mask="url(#bottle-cap-shape-5)"  fill="var(--mainColor)"/>
    <mask id="bottle-cap-shape-5">
      <rect width="2" height="2" x="2.954594154601839" y="2.4772970773009195" fill="white"/>
      <circle cx="3.954594154601839" cy="3.4772970773009195" r="0.7" fill="black"/>
      <circle cx="3.954594154601839" cy="4.4772970773009195" r="0.16" fill="black"/>
      <circle cx="4.249349329012743" cy="4.4328698830870605" r="0.16" fill="black"/>
      <circle cx="4.5179142126654614" cy="4.303535851616914" r="0.16" fill="black"/>
      <circle cx="4.7364256370698685" cy="4.100786879159653" r="0.16" fill="black"/>
      <circle cx="4.8854679032460435" cy="3.8426381016673146" r="0.16" fill="black"/>
      <circle cx="4.9517979517830195" cy="3.552027170887344" r="0.16" fill="black"/>
      <circle cx="4.929522066783663" cy="3.254776143344605" r="0.16" fill="black"/>
      <circle cx="4.820619558386277" cy="2.9772970773009195" r="0.16" fill="black"/>
      <circle cx="4.634766892372759" cy="2.7442452054710937" r="0.16" fill="black"/>
      <circle cx="4.388477893719397" cy="2.5763282093985005" r="0.16" fill="black"/>
      <circle cx="4.103636420778014" cy="2.488466251075791" r="0.16" fill="black"/>
      <circle cx="3.8055518884256645" cy="2.488466251075791" r="0.16" fill="black"/>
      <circle cx="3.520710415484281" cy="2.5763282093985005" r="0.16" fill="black"/>
      <circle cx="3.2744214168309194" cy="2.7442452054710933" r="0.16" fill="black"/>
      <circle cx="3.0885687508174007" cy="2.977297077300919" r="0.16" fill="black"/>
      <circle cx="2.9796662424200155" cy="3.2547761433446047" r="0.16" fill="black"/>
      <circle cx="2.9573903574206586" cy="3.552027170887343" r="0.16" fill="black"/>
      <circle cx="3.0237204059576346" cy="3.842638101667314" r="0.16" fill="black"/>
      <circle cx="3.172762672133809" cy="4.100786879159653" r="0.16" fill="black"/>
      <circle cx="3.391274096538217" cy="4.303535851616914" r="0.16" fill="black"/>
      <circle cx="3.6598389801909343" cy="4.43286988308706" r="0.16" fill="black"/>
    </mask>
  </g>
  <g class="bottle-cap-blue">
    <circle class="rim" cx="1.0908116907963217" cy="2.5227029226990805" r="1" mask="url(#bottle-cap-shape-6)" clip-path="url(#ring-mask-0)" fill="var(--mainColor)"/>
    <mask id="bottle-cap-shape-6">
      <rect width="2" height="2" x="0.09081169079632168" y="1.5227029226990805" fill="white"/>
      <circle cx="1.0908116907963217" cy="2.5227029226990805" r="0.7" fill="black"/>
      <circle cx="1.0908116907963217" cy="3.5227029226990805" r="0.16" fill="black"/>
      <circle cx="1.3855668652072257" cy="3.4782757284852215" r="0.16" fill="black"/>
      <circle cx="1.6541317488599436" cy="3.3489416970150754" r="0.16" fill="black"/>
      <circle cx="1.8726431732643514" cy="3.146192724557814" r="0.16" fill="black"/>
      <circle cx="2.021685439440526" cy="2.8880439470654755" r="0.16" fill="black"/>
      <circle cx="2.088015487977502" cy="2.597433016285505" r="0.16" fill="black"/>
      <circle cx="2.0657396029781454" cy="2.300181988742766" r="0.16" fill="black"/>
      <circle cx="1.9568370945807603" cy="2.0227029226990805" r="0.16" fill="black"/>
      <circle cx="1.7709844285672414" cy="1.7896510508692545" r="0.16" fill="black"/>
      <circle cx="1.52469542991388" cy="1.6217340547966614" r="0.16" fill="black"/>
      <circle cx="1.2398539569724965" cy="1.533872096473952" r="0.16" fill="black"/>
      <circle cx="0.9417694246201472" cy="1.533872096473952" r="0.16" fill="black"/>
      <circle cx="0.6569279516787636" cy="1.6217340547966614" r="0.16" fill="black"/>
      <circle cx="0.4106389530254022" cy="1.7896510508692542" r="0.16" fill="black"/>
      <circle cx="0.2247862870118832" cy="2.02270292269908" r="0.16" fill="black"/>
      <circle cx="0.11588377861449806" cy="2.3001819887427657" r="0.16" fill="black"/>
      <circle cx="0.09360789361514144" cy="2.597433016285504" r="0.16" fill="black"/>
      <circle cx="0.1599379421521172" cy="2.888043947065475" r="0.16" fill="black"/>
      <circle cx="0.30898020832829176" cy="3.146192724557814" r="0.16" fill="black"/>
      <circle cx="0.5274916327326997" cy="3.3489416970150754" r="0.16" fill="black"/>
      <circle cx="0.796056516385417" cy="3.478275728485221" r="0.16" fill="black"/>
    </mask>
    <clipPath id="ring-mask-0">
      <path d="M 1.0908116907963217 2.5227029226990805 L 1.7979184719828694 3.229809703885628 A 1 1 45 0 1 1.090811690796322 3.5227029226990805 Z"/>
    </clipPath>
  </g>
  <g class="bottle-cap-black">
    <circle class="rim" cx="3" cy="2.5227029226990805" r="1" mask="url(#bottle-cap-shape-7)" clip-path="url(#ring-mask-1)" fill="var(--mainColor)"/>
    <mask id="bottle-cap-shape-7">
      <rect width="2" height="2" x="2" y="1.5227029226990805" fill="white"/>
      <circle cx="3" cy="2.5227029226990805" r="0.7" fill="black"/>
      <circle cx="3" cy="3.5227029226990805" r="0.16" fill="black"/>
      <circle cx="3.2947551744109043" cy="3.4782757284852215" r="0.16" fill="black"/>
      <circle cx="3.563320058063622" cy="3.3489416970150754" r="0.16" fill="black"/>
      <circle cx="3.78183148246803" cy="3.146192724557814" r="0.16" fill="black"/>
      <circle cx="3.930873748644204" cy="2.8880439470654755" r="0.16" fill="black"/>
      <circle cx="3.99720379718118" cy="2.597433016285505" r="0.16" fill="black"/>
      <circle cx="3.9749279121818235" cy="2.300181988742766" r="0.16" fill="black"/>
      <circle cx="3.866025403784439" cy="2.0227029226990805" r="0.16" fill="black"/>
      <circle cx="3.6801727377709197" cy="1.7896510508692545" r="0.16" fill="black"/>
      <circle cx="3.433883739117558" cy="1.6217340547966614" r="0.16" fill="black"/>
      <circle cx="3.1490422661761746" cy="1.533872096473952" r="0.16" fill="black"/>
      <circle cx="2.8509577338238254" cy="1.533872096473952" r="0.16" fill="black"/>
      <circle cx="2.566116260882442" cy="1.6217340547966614" r="0.16" fill="black"/>
      <circle cx="2.3198272622290803" cy="1.7896510508692542" r="0.16" fill="black"/>
      <circle cx="2.1339745962155616" cy="2.02270292269908" r="0.16" fill="black"/>
      <circle cx="2.0250720878181765" cy="2.3001819887427657" r="0.16" fill="black"/>
      <circle cx="2.0027962028188195" cy="2.597433016285504" r="0.16" fill="black"/>
      <circle cx="2.0691262513557955" cy="2.888043947065475" r="0.16" fill="black"/>
      <circle cx="2.21816851753197" cy="3.146192724557814" r="0.16" fill="black"/>
      <circle cx="2.436679941936378" cy="3.3489416970150754" r="0.16" fill="black"/>
      <circle cx="2.7052448255890953" cy="3.478275728485221" r="0.16" fill="black"/>
    </mask>
    <clipPath id="ring-mask-1">
      <path d="M 3 2.5227029226990805 L 4 2.5227029226990805 A 1 1 45 0 1 3.7071067811865475 3.229809703885628 Z"/>
    </clipPath>
  </g>
  <g class="bottle-cap-black">
    <circle class="rim" cx="3" cy="2.5227029226990805" r="1" mask="url(#bottle-cap-shape-8)" clip-path="url(#ring-mask-2)" fill="var(--mainColor)"/>
    <mask id="bottle-cap-shape-8">
      <rect width="2" height="2" x="2" y="1.5227029226990805" fill="white"/>
      <circle cx="3" cy="2.5227029226990805" r="0.7" fill="black"/>
      <circle cx="3" cy="3.5227029226990805" r="0.16" fill="black"/>
      <circle cx="3.2947551744109043" cy="3.4782757284852215" r="0.16" fill="black"/>
      <circle cx="3.563320058063622" cy="3.3489416970150754" r="0.16" fill="black"/>
      <circle cx="3.78183148246803" cy="3.146192724557814" r="0.16" fill="black"/>
      <circle cx="3.930873748644204" cy="2.8880439470654755" r="0.16" fill="black"/>
      <circle cx="3.99720379718118" cy="2.597433016285505" r="0.16" fill="black"/>
      <circle cx="3.9749279121818235" cy="2.300181988742766" r="0.16" fill="black"/>
      <circle cx="3.866025403784439" cy="2.0227029226990805" r="0.16" fill="black"/>
      <circle cx="3.6801727377709197" cy="1.7896510508692545" r="0.16" fill="black"/>
      <circle cx="3.433883739117558" cy="1.6217340547966614" r="0.16" fill="black"/>
      <circle cx="3.1490422661761746" cy="1.533872096473952" r="0.16" fill="black"/>
      <circle cx="2.8509577338238254" cy="1.533872096473952" r="0.16" fill="black"/>
      <circle cx="2.566116260882442" cy="1.6217340547966614" r="0.16" fill="black"/>
      <circle cx="2.3198272622290803" cy="1.7896510508692542" r="0.16" fill="black"/>
      <circle cx="2.1339745962155616" cy="2.02270292269908" r="0.16" fill="black"/>
      <circle cx="2.0250720878181765" cy="2.3001819887427657" r="0.16" fill="black"/>
      <circle cx="2.0027962028188195" cy="2.597433016285504" r="0.16" fill="black"/>
      <circle cx="2.0691262513557955" cy="2.888043947065475" r="0.16" fill="black"/>
      <circle cx="2.21816851753197" cy="3.146192724557814" r="0.16" fill="black"/>
      <circle cx="2.436679941936378" cy="3.3489416970150754" r="0.16" fill="black"/>
      <circle cx="2.7052448255890953" cy="3.478275728485221" r="0.16" fill="black"/>
    </mask>
    <clipPath id="ring-mask-2">
      <path d="M 3 2.5227029226990805 L 3 3.5227029226990805 A 1 1 45 0 1 2.2928932188134525 3.2298097038856284 Z"/>
    </clipPath>
  </g>
  <g class="bottle-cap-red">
    <circle class="rim" cx="4.909188309203678" cy="2.5227029226990805" r="1" mask="url(#bottle-cap-shape-9)" clip-path="url(#ring-mask-3)" fill="var(--mainColor)"/>
    <mask id="bottle-cap-shape-9">
      <rect width="2" height="2" x="3.909188309203678" y="1.5227029226990805" fill="white"/>
      <circle cx="4.909188309203678" cy="2.5227029226990805" r="0.7" fill="black"/>
      <circle cx="4.909188309203678" cy="3.5227029226990805" r="0.16" fill="black"/>
      <circle cx="5.203943483614582" cy="3.4782757284852215" r="0.16" fill="black"/>
      <circle cx="5.4725083672673005" cy="3.3489416970150754" r="0.16" fill="black"/>
      <circle cx="5.691019791671708" cy="3.146192724557814" r="0.16" fill="black"/>
      <circle cx="5.840062057847883" cy="2.8880439470654755" r="0.16" fill="black"/>
      <circle cx="5.906392106384859" cy="2.597433016285505" r="0.16" fill="black"/>
      <circle cx="5.884116221385502" cy="2.300181988742766" r="0.16" fill="black"/>
      <circle cx="5.7752137129881165" cy="2.0227029226990805" r="0.16" fill="black"/>
      <circle cx="5.589361046974598" cy="1.7896510508692545" r="0.16" fill="black"/>
      <circle cx="5.343072048321236" cy="1.6217340547966614" r="0.16" fill="black"/>
      <circle cx="5.058230575379853" cy="1.533872096473952" r="0.16" fill="black"/>
      <circle cx="4.760146043027504" cy="1.533872096473952" r="0.16" fill="black"/>
      <circle cx="4.47530457008612" cy="1.6217340547966614" r="0.16" fill="black"/>
      <circle cx="4.229015571432758" cy="1.7896510508692542" r="0.16" fill="black"/>
      <circle cx="4.04316290541924" cy="2.02270292269908" r="0.16" fill="black"/>
      <circle cx="3.9342603970218546" cy="2.3001819887427657" r="0.16" fill="black"/>
      <circle cx="3.9119845120224976" cy="2.597433016285504" r="0.16" fill="black"/>
      <circle cx="3.9783145605594736" cy="2.888043947065475" r="0.16" fill="black"/>
      <circle cx="4.127356826735648" cy="3.146192724557814" r="0.16" fill="black"/>
      <circle cx="4.345868251140056" cy="3.3489416970150754" r="0.16" fill="black"/>
      <circle cx="4.614433134792773" cy="3.478275728485221" r="0.16" fill="black"/>
    </mask>
    <clipPath id="ring-mask-3">
      <path d="M 4.909188309203678 2.5227029226990805 L 4.909188309203678 3.5227029226990805 A 1 1 45 0 1 4.20208152801713 3.2298097038856284 Z"/>
    </clipPath>
  </g>
</svg>